<?xml version="1.0" encoding="utf-8"?>
<!-- Generator: Adobe Illustrator 16.0.0, SVG Export Plug-In . SVG Version: 6.00 Build 0)  -->
<!DOCTYPE svg PUBLIC "-//W3C//DTD SVG 1.1//EN" "http://www.w3.org/Graphics/SVG/1.1/DTD/svg11.dtd">
<svg version="1.1" id="Layer_1" xmlns="http://www.w3.org/2000/svg" xmlns:xlink="http://www.w3.org/1999/xlink" x="0px" y="0px"
	 width="20px"  viewBox="0 0 125.543 128.348" enable-background="new 0 0 125.543 128.348"
	 xml:space="preserve">
<g id="XMLID_240_">
	<path id="XMLID_241_" fill="#FFFFFF" d="M14.027,26.611h95.999c6.75,0,12-5.25,12-12s-5.25-12-12-12H14.027
		c-6.75-0.75-12,5.25-12,12S7.278,26.611,14.027,26.611z"/>
	<path id="XMLID_242_" fill="#FFFFFF" d="M110.026,51.36H14.027c-6.75,0-12,5.25-12,12s5.25,12,12,12h95.999c6.75,0,12-5.25,12-12
		S116.776,51.36,110.026,51.36z"/>
	<path id="XMLID_243_" fill="#FFFFFF" d="M110.026,100.109H14.027c-6.75,0-12,5.25-12,12s5.25,12,12,12h95.999c6.75,0,12-5.25,12-12
		S116.776,100.109,110.026,100.109z"/>
</g>
</svg>
